# xmcd
#
# Track frame offsets:
# 150
# 15432
# 29126
# 45105
# 59738
# 75139
# 90434
# 105432
# 120534
# 133279
# 146551
# 162641
#
# Disc length: 2337 seconds
#
#
# Revision: 0
# Processed by: cddbd v1.5.2PL0 Copyright (c) Steve Scherf et al.
# Submitted via: FreeRIP 2.945 
#
DISCID=95091f0c
DTITLE=Truck Stop - Willkommen in der Familie
DYEAR=2007
DGENRE=Country
TTITLE0=Das analoge Mädchen
TTITLE1=Sattel nicht geleich die Pferde
TTITLE2=Ich bin dein Mann
TTITLE3=Keine Zeit
TTITLE4=Einfache Cowboys
TTITLE5=Willkommen in der Familie
TTITLE6=All das mag ich - Dich brauch ich
TTITLE7=Der Lack ist ab
TTITLE8=Männer
TTITLE9=Ich bin Cowboy
TTITLE10=Spuren deiner Liebe
TTITLE11=Country Music
EXTD=
EXTT0=
EXTT1=
EXTT2=
EXTT3=
EXTT4=
EXTT5=
EXTT6=
EXTT7=
EXTT8=
EXTT9=
EXTT10=
EXTT11=
PLAYORDER=
